#!OML:ASF F:\VICON\USERDATA\INSTALL\rory3\rory3.ASF
:FULLY-SPECIFIED
:DEGREES
329
root 4.87302 17.1197 2.35798 12.1132 -13.7659 -1.95217
lowerback 0.550649 0.253794 -0.358155
upperback -2.02749 0.33094 0.0130203
thorax -2.38858 0.171631 0.205359
lowerneck -11.6256 0.364815 -1.18237
upperneck 38.8753 0.539164 0.317425
head 15.6559 0.0100667 0.412123
rclavicle 6.65929e-015 -3.97569e-015
rhumerus 24.5695 13.8274 -42.5651
rradius 104.711
rwrist -42.1299
rhand -5.99782 -43.1807
rfingers 7.12502
rthumb 19.8345 -72.1886
lclavicle 6.65929e-015 -3.97569e-015
lhumerus 39.448 -4.06857 37.6929
lradius 81.2706
lwrist 62.4707
lhand -27.5396 -23.6624
lfingers 7.12502
lthumb -0.941215 6.31531
rfemur -55.3718 -3.24555 15.6836
rtibia 35.1476
rfoot 34.285 -1.98436
rtoes -2.76913
lfemur -29.3896 3.18464 -28.9349
ltibia 34.4981
lfoot -15.7714 5.79812
ltoes 16.5275
330
root 4.87441 17.1235 2.35999 11.9016 -13.4909 -1.96968
lowerback 0.73566 0.215566 -0.252444
upperback -1.9819 0.281803 0.0267276
thorax -2.44503 0.145268 0.160834
lowerneck -11.4339 0.343669 -0.930308
upperneck 38.8504 0.597486 -0.105299
head 15.6 0.0151508 0.194417
rclavicle 1.89342e-014 -8.34896e-015
rhumerus 24.2637 14.2664 -42.859
rradius 104.494
rwrist -41.8621
rhand -6.54202 -43.101
rfingers 7.12502
rthumb 19.3112 -72.1622
lclavicle 1.89342e-014 -8.34896e-015
lhumerus 39.0826 -4.70841 38.0113
lradius 81.2211
lwrist 62.6729
lhand -26.8296 -20.2902
lfingers 7.12502
lthumb -0.255466 9.68935
rfemur -55.131 -3.12117 15.7627
rtibia 34.9996
rfoot 34.2223 -3.06713
rtoes -1.13255
lfemur -29.1692 2.97745 -28.8651
ltibia 34.5362
lfoot -15.8458 5.74199
ltoes 17.0188
331
root 4.87337 17.1216 2.36596 11.8023 -13.4362 -2.0053
lowerback 0.701555 0.223194 -0.172091
upperback -2.17952 0.293749 0.0508752
thorax -2.62895 0.150086 0.139883
lowerneck -10.3586 0.338627 -0.79494
upperneck 38.5722 0.665257 -0.451206
head 15.2054 0.0198113 0.0312577
rclavicle -1.98785e-015 8.94531e-015
rhumerus 23.6801 15.055 -43.2531
rradius 104.36
rwrist -41.4662
rhand -6.63832 -43.3467
rfingers 7.12502
rthumb 19.2186 -72.4171
lclavicle -1.98785e-015 8.94531e-015
lhumerus 38.4269 -5.72012 38.3113
lradius 81.4137
lwrist 62.8174
lhand -25.9033 -19.5228
lfingers 7.12502
lthumb 0.639169 10.456
rfemur -54.9942 -2.71438 15.7364
rtibia 34.7767
rfoot 34.2435 -4.9251
rtoes 2.8207
lfemur -29.0749 2.93085 -28.8157
ltibia 34.5979
lfoot -15.8797 5.68435
ltoes 17.3845
332
root 4.87065 17.1123 2.36773 11.7704 -13.3901 -1.959
lowerback 0.695778 0.266863 -0.218605
upperback -2.19131 0.350785 0.0367451
thorax -2.63825 0.179409 0.14974
lowerneck -10.2126 0.263023 -0.834432
upperneck 38.5568 0.563451 -0.457843
head 15.1633 -0.0289329 0.0198585
rclavicle 9.86469e-015 1.98785e-015
rhumerus 23.2985 15.1787 -43.6348
rradius 104.183
rwrist -40.3624
rhand -4.17855 -42.9528
rfingers 7.12502
rthumb 21.5825 -71.7702
lclavicle 9.86469e-015 1.98785e-015
lhumerus 38.1048 -6.40859 38.6582
lradius 81.6396
lwrist 62.8142
lhand -25.2574 -20.9437
lfingers 7.12502
lthumb 1.26297 9.03234
rfemur -54.9641 -2.2575 15.6065
rtibia 34.513
rfoot 34.4901 -5.93649
rtoes 5.30681
lfemur -29.1123 2.90898 -28.8583
ltibia 34.7002
lfoot -15.8679 5.64393
ltoes 17.371
333
root 4.87009 17.1102 2.37215 11.6411 -13.1312 -2.09362
lowerback 0.720421 0.238456 -0.0273359
upperback -1.92857 0.317809 0.0669268
thorax -2.38074 0.15935 0.0751104
lowerneck -10.8649 0.173774 -1.02204
upperneck 38.8081 0.379804 -0.161375
head 15.4433 -0.0957277 0.15142
rclavicle -1.87852e-014 -1.09332e-014
rhumerus 23.2404 14.8378 -44.0746
rradius 103.784
rwrist -38.5137
rhand 0.0532282 -40.4207
rfingers 7.12502
rthumb 25.6414 -68.7141
lclavicle -1.87852e-014 -1.09332e-014
lhumerus 37.9728 -6.70516 38.9974
lradius 81.8489
lwrist 62.7555
lhand -25.6506 -20.8124
lfingers 7.12502
lthumb 0.883199 9.16555
rfemur -54.7316 -2.01242 15.7551
rtibia 34.2795
rfoot 34.2294 -5.59894
rtoes 3.02203
lfemur -28.9903 2.7614 -28.669
ltibia 34.8604
lfoot -15.9906 5.59897
ltoes 16.2339
334
root 4.86723 17.1076 2.36846 11.5606 -12.8509 -2.25877
lowerback 0.728528 0.171742 0.16753
upperback -1.69107 0.232825 0.0842575
thorax -2.14039 0.113826 -0.0135198
lowerneck -11.2479 0.150948 -0.958718
upperneck 38.8169 0.317712 -0.114075
head 15.5398 -0.10574 0.151019
rclavicle 5.1684e-015 -1.47101e-014
rhumerus 23.1723 15.4132 -44.2749
rradius 103.745
rwrist -39.8146
rhand -3.9228 -42.6481
rfingers 7.12502
rthumb 21.8281 -71.437
lclavicle 5.1684e-015 -1.47101e-014
lhumerus 37.8463 -6.98361 39.2583
lradius 82.1168
lwrist 62.6211
lhand -26.2113 -19.7243
lfingers 7.12502
lthumb 0.341652 10.2551
rfemur -54.6309 -1.85257 16.0036
rtibia 34.141
rfoot 34.9891 -4.79131
rtoes 3.20325
lfemur -28.9602 2.64972 -28.4386
ltibia 35.0399
lfoot -16.139 5.46746
ltoes 15.002
335
root 4.85978 17.0948 2.3476 11.5424 -12.5776 -2.12732
lowerback 0.892397 0.126443 -0.00809839
upperback -1.64124 0.168008 0.0167212
thorax -2.18173 0.0838224 0.0170237
lowerneck -11.2702 0.129354 -0.74034
upperneck 38.7223 0.258025 -0.196467
head 15.4978 -0.10848 0.0674241
rclavicle 1.35174e-014 1.86858e-014
rhumerus 22.8579 15.7691 -44.6153
rradius 103.597
rwrist -40.5061
rhand -5.64626 -43.3383
rfingers 7.12502
rthumb 20.1724 -72.3109
lclavicle 1.35174e-014 1.86858e-014
lhumerus 37.4819 -7.49289 39.4389
lradius 81.62
lwrist 62.4917
lhand -25.7964 -20.7848
lfingers 7.12502
lthumb 0.742362 9.19361
rfemur -54.8051 -1.65165 15.884
rtibia 34.0522
rfoot 34.7935 -4.32162
rtoes 1.36302
lfemur -29.161 2.62149 -28.5395
ltibia 35.223
lfoot -16.1343 5.23551
ltoes 15.9834
336
root 4.85315 17.0838 2.33651 11.482 -12.2969 -1.97799
lowerback 1.05437 0.0594346 -0.18401
upperback -1.56599 0.0740412 -0.0294138
thorax -2.19565 0.0394365 0.0707965
lowerneck -11.5868 0.132372 -0.656291
upperneck 38.8521 0.220163 -0.134531
head 15.64 -0.103883 0.0729129
rclavicle 1.50082e-014 -1.59028e-014
rhumerus 22.5343 16.0073 -44.9714
rradius 103.405
rwrist -40.5872
rhand -6.07734 -43.1648
rfingers 7.12502
rthumb 19.758 -72.1806
lclavicle 1.50082e-014 -1.59028e-014
lhumerus 37.3428 -7.94133 39.5646
lradius 82.0344
lwrist 62.4011
lhand -25.875 -21.467
lfingers 7.12502
lthumb 0.666485 8.51169
rfemur -54.8928 -1.45241 15.7094
rtibia 33.9848
rfoot 34.8306 -4.16124
rtoes 1.14587
lfemur -29.2775 2.68613 -28.6865
ltibia 35.4035
lfoot -16.134 4.95606
ltoes 16.8735
